<?xml version="1.0" encoding="UTF-8"?>
<svg id="_격리_모드" data-name="격리 모드" xmlns="http://www.w3.org/2000/svg" xmlns:xlink="http://www.w3.org/1999/xlink" viewBox="0 0 115 28">
  <defs>
    <style>
      .cls-1 {
        opacity: .6;
      }

      .cls-2 {
        fill: #fdfefe;
      }

      .cls-3 {
        fill: url(#_무제_그라디언트_2095);
      }

      .cls-4 {
        fill: #fff;
      }

      .cls-5 {
        fill: #004189;
      }
    </style>
    <linearGradient id="_무제_그라디언트_2095" data-name="무제 그라디언트 2095" x1="74.02" y1="7.68" x2="114.64" y2="7.68" gradientUnits="userSpaceOnUse">
      <stop offset="0" stop-color="#004189"/>
      <stop offset="1" stop-color="#0f8ea8"/>
    </linearGradient>
  </defs>
  <g class="cls-1">
    <g>
      <path class="cls-5" d="M13.19,25.21v1.39h-.49v-3.84h1.08c.42,0,.74.1.97.31.23.2.34.49.34.87s-.13.68-.38.91c-.25.24-.6.35-1.03.35h-.5ZM13.19,23.2v1.58h.46c.3,0,.53-.07.69-.21s.24-.34.24-.6-.07-.45-.22-.58c-.15-.13-.37-.19-.66-.19h-.51Z"/>
      <path class="cls-5" d="M17.76,26.6h-.47v-.44h-.01c-.1.17-.22.29-.36.38s-.31.13-.5.13c-.26,0-.48-.08-.64-.23s-.24-.36-.24-.61.08-.45.25-.6c.16-.16.4-.26.71-.3l.8-.11v-.06c0-.23-.05-.39-.16-.49-.11-.1-.25-.15-.43-.15-.14,0-.29.03-.42.08-.14.06-.27.14-.39.25l-.26-.29c.16-.15.33-.25.51-.33.18-.07.38-.11.6-.11.34,0,.6.09.77.26.17.18.26.44.26.79v1.81ZM17.29,25.46v-.27l-.67.09c-.21.03-.36.08-.46.16-.1.07-.15.19-.15.35s.05.28.14.37.21.13.36.13c.24,0,.42-.08.57-.23.14-.16.21-.35.21-.6Z"/>
      <path class="cls-5" d="M20.2,24.2s-.07-.02-.1-.02c-.03,0-.07,0-.11,0-.23,0-.41.1-.54.29-.13.19-.2.43-.2.73v1.42h-.48v-2.81h.48v.56h.01c.06-.2.16-.35.29-.45.13-.1.28-.15.46-.15.06,0,.1,0,.14,0s.08.01.11.02l-.07.42Z"/>
      <path class="cls-5" d="M22.96,26.6h-.47v-.44h-.01c-.1.17-.22.29-.36.38s-.31.13-.5.13c-.26,0-.48-.08-.64-.23s-.24-.36-.24-.61.08-.45.25-.6c.16-.16.4-.26.71-.3l.8-.11v-.06c0-.23-.05-.39-.16-.49-.11-.1-.25-.15-.43-.15-.14,0-.29.03-.42.08-.14.06-.27.14-.39.25l-.26-.29c.16-.15.33-.25.51-.33.18-.07.38-.11.6-.11.34,0,.6.09.77.26.17.18.26.44.26.79v1.81ZM22.49,25.46v-.27l-.67.09c-.21.03-.36.08-.46.16-.1.07-.15.19-.15.35s.05.28.14.37.21.13.36.13c.24,0,.42-.08.57-.23.14-.16.21-.35.21-.6Z"/>
      <path class="cls-5" d="M23.98,26.6v-4.06h.48v4.06h-.48Z"/>
      <path class="cls-5" d="M25.76,23.2c-.09,0-.17-.03-.24-.09-.06-.06-.09-.14-.09-.23s.03-.17.09-.23.14-.09.24-.09.17.03.24.09c.06.06.09.14.09.23s-.03.17-.09.23c-.06.06-.14.09-.24.09ZM25.99,26.6h-.48v-2.81h.48v2.81Z"/>
      <path class="cls-5" d="M29.44,26.6h-.48v-1.6c0-.29-.05-.51-.16-.66-.11-.15-.27-.22-.48-.22s-.4.08-.55.25c-.14.16-.22.37-.22.63v1.6h-.48v-2.81h.48v.47h.01c.11-.18.23-.31.39-.4.15-.09.33-.13.53-.13.31,0,.54.1.7.3.16.2.24.48.24.86v1.72Z"/>
      <path class="cls-5" d="M32.87,26.4c0,.49-.13.87-.38,1.12-.25.25-.61.38-1.06.38-.19,0-.37-.02-.54-.06-.17-.04-.33-.1-.5-.18l.17-.36c.15.07.29.12.43.15.14.03.29.05.44.05.3,0,.54-.09.71-.26.17-.17.26-.43.26-.77v-.33h-.01c-.11.18-.24.31-.4.4s-.35.13-.56.13c-.35,0-.63-.13-.84-.38-.21-.25-.32-.59-.32-1.01,0-.46.12-.84.35-1.13.23-.29.55-.43.93-.43.19,0,.35.04.49.11.14.07.25.19.35.34h.01v-.39h.48v2.6ZM32.4,25.33v-.4c0-.22-.07-.41-.22-.57-.15-.16-.33-.24-.55-.24-.27,0-.48.09-.64.28-.16.19-.23.47-.23.85,0,.32.07.58.22.75s.34.26.59.26.45-.09.6-.26.23-.4.23-.68Z"/>
      <path class="cls-5" d="M36.23,26.6h-.48v-.45h-.01c-.09.17-.21.3-.36.39-.15.09-.32.13-.51.13-.33,0-.58-.1-.75-.3-.17-.2-.25-.5-.25-.9v-1.68h.48v1.61c0,.29.06.51.17.65s.28.22.5.22.39-.08.53-.24c.14-.16.21-.37.21-.63v-1.61h.48v2.81Z"/>
      <path class="cls-5" d="M37.54,23.2c-.09,0-.17-.03-.24-.09-.06-.06-.09-.14-.09-.23s.03-.17.09-.23.14-.09.24-.09.17.03.24.09c.06.06.09.14.09.23s-.03.17-.09.23c-.06.06-.14.09-.24.09ZM37.77,26.6h-.48v-2.81h.48v2.81Z"/>
      <path class="cls-5" d="M38.62,26.39l.22-.36c.12.08.23.14.35.18s.24.06.38.06c.19,0,.33-.03.43-.1.1-.07.15-.17.15-.31,0-.11-.04-.21-.13-.28-.09-.08-.22-.14-.41-.19-.35-.09-.59-.2-.72-.34-.13-.14-.2-.31-.2-.51,0-.24.09-.43.27-.59.18-.16.42-.23.73-.23.15,0,.29.02.43.06.13.04.27.1.41.19l-.21.35c-.12-.08-.24-.13-.34-.16-.1-.03-.2-.05-.31-.05-.18,0-.31.03-.41.1-.09.07-.14.16-.14.29s.05.21.14.28c.09.06.25.12.46.18.29.08.5.18.64.32.14.14.21.32.21.54,0,.26-.09.46-.28.62-.19.15-.44.23-.76.23-.17,0-.34-.02-.5-.07-.16-.05-.3-.12-.44-.2Z"/>
      <path class="cls-5" d="M42.81,26.57c-.08.03-.15.06-.23.07-.08.02-.16.02-.26.02-.23,0-.41-.07-.54-.2-.13-.13-.19-.33-.19-.59v-1.69h-.48v-.4h.48v-.64l.48-.15v.79h.7v.4h-.7v1.63c0,.16.03.27.09.34.06.07.14.11.26.11.05,0,.11,0,.16-.02s.09-.03.13-.05l.11.36Z"/>
      <path class="cls-5" d="M43.79,23.2c-.09,0-.17-.03-.24-.09-.06-.06-.09-.14-.09-.23s.03-.17.09-.23.14-.09.24-.09.17.03.24.09c.06.06.09.14.09.23s-.03.17-.09.23c-.06.06-.14.09-.24.09ZM44.02,26.6h-.48v-2.81h.48v2.81Z"/>
      <path class="cls-5" d="M47.13,26.43c-.13.09-.27.15-.4.19-.13.04-.28.06-.43.06-.4,0-.73-.12-.98-.37s-.38-.59-.38-1.04.13-.83.39-1.11c.26-.28.61-.42,1.06-.42.14,0,.28.02.41.05.13.03.26.09.39.17l-.2.35c-.1-.06-.2-.1-.3-.13-.1-.03-.2-.04-.32-.04-.31,0-.54.1-.7.3-.16.2-.24.46-.24.78,0,.34.09.6.26.79.17.18.39.27.66.27.09,0,.19-.01.28-.04.1-.03.2-.07.3-.14l.21.34Z"/>
      <path class="cls-5" d="M51.74,26.6h-.49v-3.84h.49v3.84Z"/>
      <path class="cls-5" d="M55.22,26.6h-.48v-1.6c0-.29-.05-.51-.16-.66-.11-.15-.27-.22-.48-.22s-.4.08-.55.25c-.14.16-.22.37-.22.63v1.6h-.48v-2.81h.48v.47h.01c.11-.18.23-.31.39-.4.15-.09.33-.13.53-.13.31,0,.54.1.7.3.16.2.24.48.24.86v1.72Z"/>
      <path class="cls-5" d="M57.6,26.57c-.08.03-.15.06-.23.07-.08.02-.16.02-.26.02-.23,0-.41-.07-.54-.2-.13-.13-.19-.33-.19-.59v-1.69h-.48v-.4h.48v-.64l.48-.15v.79h.7v.4h-.7v1.63c0,.16.03.27.09.34.06.07.14.11.26.11.05,0,.11,0,.16-.02s.09-.03.13-.05l.11.36Z"/>
      <path class="cls-5" d="M60.61,25.31h-1.98c0,.31.09.55.25.72.16.17.38.25.66.25.12,0,.25-.02.38-.06.13-.04.26-.1.39-.19l.22.33c-.16.11-.33.19-.49.24-.16.05-.34.08-.54.08-.42,0-.76-.13-.99-.38-.24-.25-.36-.61-.36-1.06,0-.45.12-.81.36-1.09.24-.28.56-.41.94-.41s.65.12.86.36c.2.24.31.57.31.99v.23ZM60.13,24.93c0-.26-.06-.46-.19-.6-.12-.14-.29-.21-.5-.21s-.39.07-.53.22c-.15.15-.23.35-.27.6h1.49Z"/>
      <path class="cls-5" d="M61.45,26.6v-4.06h.48v4.06h-.48Z"/>
      <path class="cls-5" d="M62.99,26.6v-4.06h.48v4.06h-.48Z"/>
      <path class="cls-5" d="M64.78,23.2c-.09,0-.17-.03-.24-.09-.06-.06-.09-.14-.09-.23s.03-.17.09-.23.14-.09.24-.09.17.03.24.09c.06.06.09.14.09.23s-.03.17-.09.23c-.06.06-.14.09-.24.09ZM65.01,26.6h-.48v-2.81h.48v2.81Z"/>
      <path class="cls-5" d="M68.53,26.4c0,.49-.13.87-.38,1.12-.25.25-.61.38-1.06.38-.19,0-.37-.02-.54-.06-.17-.04-.33-.1-.5-.18l.17-.36c.15.07.29.12.43.15.14.03.29.05.44.05.3,0,.54-.09.71-.26.17-.17.26-.43.26-.77v-.33h-.01c-.11.18-.24.31-.4.4s-.35.13-.56.13c-.35,0-.63-.13-.84-.38-.21-.25-.32-.59-.32-1.01,0-.46.12-.84.35-1.13.23-.29.55-.43.93-.43.19,0,.35.04.49.11.14.07.25.19.35.34h.01v-.39h.48v2.6ZM68.05,25.33v-.4c0-.22-.07-.41-.22-.57-.15-.16-.33-.24-.55-.24-.27,0-.48.09-.64.28-.16.19-.23.47-.23.85,0,.32.07.58.22.75s.34.26.59.26.45-.09.6-.26.23-.4.23-.68Z"/>
      <path class="cls-5" d="M71.87,25.31h-1.98c0,.31.09.55.25.72.16.17.38.25.66.25.12,0,.25-.02.38-.06.13-.04.26-.1.39-.19l.22.33c-.16.11-.33.19-.49.24-.16.05-.34.08-.54.08-.42,0-.76-.13-.99-.38-.24-.25-.36-.61-.36-1.06,0-.45.12-.81.36-1.09.24-.28.56-.41.94-.41s.65.12.86.36c.2.24.31.57.31.99v.23ZM71.39,24.93c0-.26-.06-.46-.19-.6-.12-.14-.29-.21-.5-.21s-.39.07-.53.22c-.15.15-.23.35-.27.6h1.49Z"/>
      <path class="cls-5" d="M75.07,26.6h-.48v-1.6c0-.29-.05-.51-.16-.66-.11-.15-.27-.22-.48-.22s-.4.08-.55.25c-.14.16-.22.37-.22.63v1.6h-.48v-2.81h.48v.47h.01c.11-.18.23-.31.39-.4.15-.09.33-.13.53-.13.31,0,.54.1.7.3.16.2.24.48.24.86v1.72Z"/>
      <path class="cls-5" d="M78.08,26.43c-.13.09-.27.15-.4.19-.13.04-.28.06-.43.06-.4,0-.73-.12-.98-.37s-.38-.59-.38-1.04.13-.83.39-1.11c.26-.28.61-.42,1.06-.42.14,0,.28.02.41.05.13.03.26.09.39.17l-.2.35c-.1-.06-.2-.1-.3-.13-.1-.03-.2-.04-.32-.04-.31,0-.54.1-.7.3-.16.2-.24.46-.24.78,0,.34.09.6.26.79.17.18.39.27.66.27.09,0,.19-.01.28-.04.1-.03.2-.07.3-.14l.21.34Z"/>
      <path class="cls-5" d="M81.14,25.31h-1.98c0,.31.09.55.25.72.16.17.38.25.66.25.12,0,.25-.02.38-.06.13-.04.26-.1.39-.19l.22.33c-.16.11-.33.19-.49.24-.16.05-.34.08-.54.08-.42,0-.76-.13-.99-.38-.24-.25-.36-.61-.36-1.06,0-.45.12-.81.36-1.09.24-.28.56-.41.94-.41s.65.12.86.36c.2.24.31.57.31.99v.23ZM80.67,24.93c0-.26-.06-.46-.19-.6-.12-.14-.29-.21-.5-.21s-.39.07-.53.22c-.15.15-.23.35-.27.6h1.49Z"/>
      <path class="cls-5" d="M87.38,26.6h-2.06v-3.84h1.97v.43h-1.49v1.24h1.38v.43h-1.38v1.3h1.57v.43Z"/>
      <path class="cls-5" d="M90.59,26.6h-.48v-1.6c0-.29-.05-.51-.16-.66-.11-.15-.27-.22-.48-.22s-.4.08-.55.25c-.14.16-.22.37-.22.63v1.6h-.48v-2.81h.48v.47h.01c.11-.18.23-.31.39-.4.15-.09.33-.13.53-.13.31,0,.54.1.7.3.16.2.24.48.24.86v1.72Z"/>
      <path class="cls-5" d="M94.02,26.4c0,.49-.13.87-.38,1.12-.25.25-.61.38-1.06.38-.19,0-.37-.02-.54-.06-.17-.04-.33-.1-.5-.18l.17-.36c.15.07.29.12.43.15.14.03.29.05.44.05.3,0,.54-.09.71-.26.17-.17.26-.43.26-.77v-.33h-.01c-.11.18-.24.31-.4.4s-.35.13-.56.13c-.35,0-.63-.13-.84-.38-.21-.25-.32-.59-.32-1.01,0-.46.12-.84.35-1.13.23-.29.55-.43.93-.43.19,0,.35.04.49.11.14.07.25.19.35.34h.01v-.39h.48v2.6ZM93.55,25.33v-.4c0-.22-.07-.41-.22-.57-.15-.16-.33-.24-.55-.24-.27,0-.48.09-.64.28-.16.19-.23.47-.23.85,0,.32.07.58.22.75s.34.26.59.26.45-.09.6-.26.23-.4.23-.68Z"/>
      <path class="cls-5" d="M95.33,23.2c-.09,0-.17-.03-.24-.09-.06-.06-.09-.14-.09-.23s.03-.17.09-.23.14-.09.24-.09.17.03.24.09c.06.06.09.14.09.23s-.03.17-.09.23c-.06.06-.14.09-.24.09ZM95.56,26.6h-.48v-2.81h.48v2.81Z"/>
      <path class="cls-5" d="M99.01,26.6h-.48v-1.6c0-.29-.05-.51-.16-.66-.11-.15-.27-.22-.48-.22s-.4.08-.55.25c-.14.16-.22.37-.22.63v1.6h-.48v-2.81h.48v.47h.01c.11-.18.23-.31.39-.4.15-.09.33-.13.53-.13.31,0,.54.1.7.3.16.2.24.48.24.86v1.72Z"/>
      <path class="cls-5" d="M102.3,25.31h-1.98c0,.31.09.55.25.72.16.17.38.25.66.25.12,0,.25-.02.38-.06.13-.04.26-.1.39-.19l.22.33c-.16.11-.33.19-.49.24-.16.05-.34.08-.54.08-.42,0-.76-.13-.99-.38-.24-.25-.36-.61-.36-1.06,0-.45.12-.81.36-1.09.24-.28.56-.41.94-.41s.65.12.86.36c.2.24.31.57.31.99v.23ZM101.82,24.93c0-.26-.06-.46-.19-.6-.12-.14-.29-.21-.5-.21s-.39.07-.53.22c-.15.15-.23.35-.27.6h1.49Z"/>
    </g>
  </g>
  <g>
    <path class="cls-5" d="M.36,6.75c0-.49.09-.95.28-1.39.19-.43.44-.81.77-1.13.32-.32.7-.58,1.13-.77.43-.19.89-.28,1.39-.28h5.46v2.38H3.93c-.17,0-.32.03-.46.09-.14.06-.27.15-.38.25-.11.11-.19.23-.25.38-.06.14-.09.3-.09.47s.03.32.09.47c.06.15.15.27.25.38.11.11.23.19.38.25.14.06.3.09.46.09h2.38c.49,0,.96.09,1.39.28.43.19.81.44,1.14.76.32.32.58.7.76,1.14.19.43.28.9.28,1.39s-.09.95-.28,1.39c-.19.43-.44.81-.76,1.13-.32.32-.7.58-1.14.77-.43.19-.9.28-1.39.28H1.02v-2.38h5.29c.17,0,.32-.03.46-.09.14-.06.27-.15.38-.25.11-.11.19-.23.25-.38.06-.14.09-.3.09-.46s-.03-.32-.09-.46c-.06-.14-.15-.27-.25-.38s-.23-.19-.38-.25c-.14-.06-.3-.09-.46-.09h-2.38c-.49,0-.95-.09-1.39-.28-.43-.19-.81-.44-1.13-.77-.32-.32-.58-.7-.77-1.14-.19-.43-.28-.9-.28-1.39Z"/>
    <path class="cls-5" d="M19.43,8.63c-.24-.58-.56-1.07-.97-1.49-.41-.41-.89-.73-1.44-.95-.55-.22-1.14-.34-1.77-.34s-1.21.12-1.76.36c-.55.24-1.03.57-1.44.98-.41.42-.74.91-.98,1.49-.24.58-.36,1.2-.36,1.88s.12,1.28.36,1.86c.24.57.56,1.07.98,1.49.41.42.89.75,1.44.99.55.24,1.14.36,1.76.36s1.22-.12,1.77-.36c.55-.24,1.03-.57,1.44-.99.41-.42.73-.91.97-1.49.24-.57.36-1.19.36-1.86,0-.71-.12-1.35-.36-1.93ZM17.33,11.55c-.12.3-.28.55-.49.76-.2.21-.44.37-.72.49-.27.12-.57.17-.88.17s-.6-.06-.88-.19c-.27-.12-.51-.29-.71-.51-.2-.22-.36-.47-.48-.76-.12-.29-.17-.61-.17-.95,0-.37.06-.7.17-.99.12-.3.28-.55.48-.76.2-.21.44-.38.71-.49.27-.11.57-.17.88-.17s.6.06.88.17c.27.11.51.28.72.49.2.21.37.47.49.76.12.3.18.63.18.99s-.06.69-.18.99Z"/>
    <path class="cls-5" d="M27.58,14.05c-.18.17-.38.32-.59.47-.21.15-.42.27-.65.38-.23.11-.46.19-.7.26-.24.06-.49.1-.73.1-.55,0-1.06-.1-1.54-.29-.48-.19-.9-.47-1.27-.83-.36-.36-.65-.79-.86-1.3-.21-.51-.31-1.09-.31-1.72v-4.91h2.26v4.91c0,.3.05.57.14.8.09.24.21.43.37.59.15.16.34.28.54.37.21.08.43.12.67.12s.45-.05.66-.16c.21-.11.39-.25.54-.43.15-.18.28-.38.37-.6.09-.22.13-.46.13-.69v-4.91h2.27v8.89h-.55l-.75-1.04Z"/>
    <rect class="cls-5" x="30.6" y="3.18" width="2.28" height="11.9"/>
    <path class="cls-5" d="M35.79,6.75c0-.49.09-.95.28-1.39.19-.43.44-.81.77-1.13.32-.32.7-.58,1.13-.77.43-.19.89-.28,1.39-.28h5.46v2.38h-5.46c-.17,0-.32.03-.46.09-.14.06-.27.15-.38.25-.11.11-.19.23-.25.38-.06.14-.09.3-.09.47s.03.32.09.47c.06.15.15.27.25.38.11.11.23.19.38.25.14.06.3.09.46.09h2.38c.49,0,.96.09,1.39.28.43.19.81.44,1.14.76.32.32.58.7.76,1.14.19.43.28.9.28,1.39s-.09.95-.28,1.39c-.19.43-.44.81-.76,1.13-.32.32-.7.58-1.14.77-.43.19-.9.28-1.39.28h-5.29v-2.38h5.29c.17,0,.32-.03.46-.09.14-.06.27-.15.38-.25.11-.11.19-.23.25-.38.06-.14.09-.3.09-.46s-.03-.32-.09-.46c-.06-.14-.15-.27-.25-.38s-.23-.19-.38-.25c-.14-.06-.3-.09-.46-.09h-2.38c-.49,0-.95-.09-1.39-.28-.43-.19-.81-.44-1.13-.77-.32-.32-.58-.7-.77-1.14-.19-.43-.28-.9-.28-1.39Z"/>
    <path class="cls-5" d="M55.3,8.64c-.24-.58-.56-1.07-.98-1.48-.41-.41-.89-.73-1.44-.95-.55-.22-1.14-.34-1.76-.34-.29,0-.57.04-.86.11-.28.07-.55.17-.82.29-.26.12-.52.27-.76.44-.24.17-.47.35-.67.55l-.9-1.07h-.55v12.28h2.28v-3.98c.17.1.35.2.54.29.19.09.37.18.56.25.19.07.38.13.58.18.2.04.39.07.59.07.63,0,1.21-.11,1.76-.32.55-.22,1.03-.53,1.44-.93.41-.41.74-.9.98-1.49.24-.58.36-1.24.36-1.97s-.12-1.34-.36-1.92ZM53.2,11.55c-.12.3-.28.55-.49.76-.2.21-.45.37-.72.49-.28.12-.57.17-.88.17s-.6-.06-.88-.17c-.27-.12-.51-.28-.72-.49-.2-.21-.37-.47-.49-.76-.12-.3-.18-.63-.18-.99s.06-.71.18-1.01c.12-.3.28-.55.49-.76.2-.21.44-.37.72-.48.27-.11.57-.17.88-.17s.6.06.88.17c.28.11.52.27.72.48.2.21.37.46.49.76.12.3.18.64.18,1.01s-.06.69-.18.99Z"/>
    <path class="cls-5" d="M62.67,12.21c-.14.16-.3.3-.48.41-.18.11-.37.2-.58.26-.2.06-.42.09-.64.09-.09,0-.18,0-.27-.01-.09,0-.18-.03-.27-.05l4.25-5.12c-.21-.3-.45-.57-.73-.81-.28-.24-.57-.44-.89-.61-.32-.17-.65-.29-1.01-.38-.35-.09-.72-.13-1.09-.13-.63,0-1.21.11-1.76.34-.55.23-1.03.55-1.44.95-.41.41-.74.9-.98,1.49-.24.58-.36,1.22-.36,1.93s.12,1.32.36,1.89c.24.57.56,1.07.98,1.48.41.42.89.74,1.44.97.55.23,1.14.35,1.76.35.37,0,.73-.04,1.08-.13.35-.09.69-.21,1-.38.32-.17.61-.37.89-.61.27-.24.52-.51.73-.81l-1.66-1.67c-.09.2-.2.38-.34.54ZM58.96,11.74c-.04-.08-.08-.17-.11-.27-.03-.1-.05-.2-.07-.31-.02-.11-.03-.21-.04-.32s-.01-.2-.01-.28c0-.37.06-.7.17-1,.12-.3.28-.55.48-.76.2-.21.44-.37.71-.49.27-.11.57-.17.88-.17.11,0,.22,0,.32.02.1.01.21.04.31.07l-2.64,3.5Z"/>
    <path class="cls-5" d="M73.53,7.96l-1.66,1.67c-.08-.23-.2-.44-.34-.63-.14-.19-.31-.34-.49-.47-.18-.13-.38-.22-.59-.29s-.43-.1-.65-.1c-.31,0-.6.06-.88.19-.27.13-.51.31-.71.54-.2.23-.36.5-.48.82-.12.32-.17.66-.17,1.05,0,.31.06.6.17.87.12.27.28.51.48.71.2.2.44.37.71.48.27.12.57.17.88.17.22,0,.43-.03.64-.09.2-.06.4-.15.58-.26.18-.11.34-.25.48-.41s.26-.34.34-.54l1.66,1.67c-.21.3-.45.57-.73.81-.27.24-.57.44-.89.61-.32.17-.65.29-1,.38-.35.09-.71.13-1.08.13-.63,0-1.21-.12-1.76-.35s-1.03-.56-1.44-.97c-.41-.41-.74-.89-.98-1.44-.24-.55-.36-1.13-.36-1.76,0-.68.12-1.32.36-1.91.24-.59.56-1.11.98-1.55.41-.44.89-.79,1.44-1.04s1.14-.38,1.76-.38c.37,0,.73.05,1.09.14.36.09.7.23,1.02.41.32.18.62.4.9.66.27.26.51.56.71.9Z"/>
    <path class="cls-2" d="M107.81,7.72l-1.26,3.55c-.07.21.07.43.29.43h1.51c.23,0,.4-.22.36-.46l-.57-3.5c-.03-.18-.27-.2-.33-.03Z"/>
    <path class="cls-3" d="M79.1,15.08c-.55,0-1.06-.1-1.54-.31-.48-.21-.9-.49-1.27-.85-.36-.36-.65-.78-.85-1.27-.21-.48-.31-1-.31-1.54v-2.64h-1.1v-2.26h1.1v-3.55h2.26v3.55h3.44v2.26h-3.44v2.64c0,.24.04.46.13.67s.21.39.37.54c.16.16.34.28.55.37s.43.14.67.14h1.72v2.26h-1.72ZM84.35,15.08h-2.27V6.19h.55l.75,1.05c.37-.33.78-.59,1.25-.77.46-.18.95-.27,1.44-.27h2v2.26h-2c-.24,0-.46.04-.67.13s-.39.21-.55.37c-.16.16-.28.34-.37.55-.09.21-.13.43-.13.67v4.9ZM95.07,14.05c-.18.17-.38.32-.59.47-.21.15-.42.27-.65.38-.23.11-.46.19-.7.26s-.49.1-.73.1c-.55,0-1.06-.1-1.54-.29-.48-.19-.9-.47-1.27-.83-.36-.36-.65-.79-.85-1.3-.21-.51-.31-1.09-.31-1.72v-4.91h2.26v4.91c0,.3.05.57.14.8s.21.43.37.59c.16.16.34.28.54.37s.43.12.67.12.45-.05.66-.16c.21-.11.39-.25.54-.43.15-.18.28-.38.37-.6.09-.22.13-.46.13-.69v-4.91h2.27v8.89h-.55l-.75-1.04ZM112.94,13.68h-8.98s-4.18-8.38-4.18-8.38l-3.02,6.03.03,3.74,3-6.04,3.12,6.21h11.74l-1.7-1.57ZM109.48.11l-4.8,12.63h7.88L109.48.11Z"/>
    <path class="cls-4" d="M109.64,11.11h-1.96c-.28,0-.47-.29-.37-.57l1.63-4.74c.08-.23.39-.2.43.04l.74,4.67c.05.32-.17.6-.47.61Z"/>
  </g>
</svg>