<?xml version="1.0" encoding="UTF-8"?>
<svg id="_격리_모드" data-name="격리 모드" xmlns="http://www.w3.org/2000/svg" xmlns:xlink="http://www.w3.org/1999/xlink" viewBox="0 0 320 155.98">
  <defs>
    <style>
      .cls-1 {
        letter-spacing: -.03em;
      }

      .cls-2 {
        fill: url(#_무제_그라디언트_2095);
      }

      .cls-3, .cls-4 {
        fill: #004189;
      }

      .cls-5 {
        opacity: .68;
      }

      .cls-4 {
        font-family: SegoeUIVariable-RegularSmall, 'Segoe UI Variable';
        font-size: 20.64px;
        font-variation-settings: 'wght' 400, 'opsz' 8;
      }
    </style>
    <linearGradient id="_무제_그라디언트_2095" data-name="무제 그라디언트 2095" x1="154.97" y1="77.15" x2="316.14" y2="77.15" gradientUnits="userSpaceOnUse">
      <stop offset="0" stop-color="#004189"/>
      <stop offset="1" stop-color="#0f8ea8"/>
    </linearGradient>
  </defs>
  <g class="cls-5">
    <text class="cls-4" transform="translate(4.65 151.13)"><tspan class="cls-1" x="0" y="0">P</tspan><tspan x="11.15" y="0">aralinguistic Intelligence Engine</tspan></text>
  </g>
  <g>
    <path class="cls-3" d="M3.35,73.53c0-1.95.37-3.79,1.12-5.5.75-1.71,1.76-3.21,3.05-4.5,1.28-1.28,2.78-2.3,4.5-3.05,1.71-.75,3.55-1.12,5.5-1.12h21.67v9.45h-21.67c-.66,0-1.27.12-1.84.36-.57.24-1.07.58-1.5,1-.43.43-.76.93-1,1.5-.24.57-.36,1.19-.36,1.84s.12,1.28.36,1.86c.24.58.58,1.09,1,1.52.43.43.93.76,1.5,1,.57.24,1.19.36,1.84.36h9.45c1.95,0,3.79.37,5.52,1.1,1.72.74,3.23,1.75,4.51,3.03,1.28,1.28,2.29,2.79,3.03,4.51.74,1.72,1.1,3.56,1.1,5.52s-.37,3.79-1.1,5.5c-.74,1.71-1.75,3.21-3.03,4.49-1.28,1.28-2.79,2.3-4.51,3.05-1.72.75-3.56,1.12-5.52,1.12H5.99v-9.45h20.98c.66,0,1.27-.12,1.84-.36.57-.24,1.07-.58,1.5-1,.43-.43.76-.93,1-1.5.24-.57.36-1.19.36-1.84s-.12-1.27-.36-1.84c-.24-.57-.58-1.07-1-1.5s-.93-.76-1.5-1c-.57-.24-1.19-.36-1.84-.36h-9.45c-1.95,0-3.79-.37-5.5-1.12-1.71-.75-3.21-1.76-4.5-3.05-1.28-1.28-2.3-2.79-3.05-4.51-.75-1.72-1.12-3.56-1.12-5.52Z"/>
    <path class="cls-3" d="M80.71,81.02c-.94-2.29-2.23-4.25-3.87-5.88-1.64-1.62-3.55-2.88-5.73-3.77-2.19-.89-4.52-1.33-7-1.33-1.14,0-2.27.14-3.39.43-1.12.29-2.2.68-3.24,1.17-1.04.49-2.05,1.08-3.01,1.76-.97.68-1.86,1.41-2.67,2.17l-3.59-4.25h-2.17v48.71h9.06v-15.81c.68.39,1.39.78,2.12,1.15.74.37,1.48.71,2.24,1,.76.3,1.53.53,2.31.71.78.18,1.56.26,2.35.26,2.48,0,4.81-.43,7-1.28,2.18-.86,4.09-2.09,5.73-3.7,1.64-1.61,2.93-3.58,3.87-5.89.94-2.32,1.42-4.92,1.42-7.82s-.47-5.33-1.42-7.62ZM72.39,92.56c-.47,1.19-1.11,2.2-1.93,3.03-.81.83-1.77,1.48-2.87,1.94-1.1.46-2.26.69-3.49.69s-2.39-.23-3.47-.69c-1.09-.46-2.04-1.11-2.85-1.94-.81-.83-1.45-1.84-1.93-3.03-.47-1.19-.71-2.49-.71-3.92s.24-2.83.71-4.02c.47-1.19,1.11-2.19,1.93-3.01.81-.82,1.76-1.45,2.85-1.89,1.09-.44,2.24-.66,3.47-.66s2.39.22,3.49.66c1.1.44,2.05,1.07,2.87,1.89.81.82,1.45,1.83,1.93,3.01.47,1.19.71,2.53.71,4.02s-.24,2.73-.71,3.92Z"/>
    <path class="cls-3" d="M109.97,95.18c-.56.65-1.2,1.2-1.91,1.65-.71.45-1.48.8-2.29,1.04-.81.24-1.66.36-2.54.36-.35,0-.7-.02-1.05-.05-.35-.03-.7-.1-1.05-.21l16.86-20.32c-.83-1.19-1.8-2.26-2.9-3.21-1.1-.95-2.28-1.76-3.54-2.42-1.26-.66-2.6-1.16-4-1.51-1.41-.35-2.84-.53-4.31-.53-2.48,0-4.81.45-7,1.35-2.18.9-4.09,2.16-5.73,3.79-1.64,1.62-2.93,3.59-3.87,5.89-.94,2.31-1.42,4.85-1.42,7.64s.47,5.22,1.42,7.49c.94,2.27,2.23,4.23,3.87,5.88,1.64,1.65,3.55,2.93,5.73,3.85,2.18.92,4.52,1.38,7,1.38,1.47,0,2.9-.17,4.3-.51,1.39-.34,2.72-.84,3.98-1.5,1.26-.66,2.44-1.46,3.52-2.4,1.09-.94,2.05-2.01,2.88-3.19l-6.59-6.62c-.35.79-.81,1.51-1.37,2.16ZM95.27,93.32c-.18-.31-.32-.66-.43-1.05-.11-.39-.2-.81-.28-1.23-.08-.43-.13-.85-.16-1.27s-.05-.79-.05-1.12c0-1.47.23-2.79.69-3.97.46-1.17,1.09-2.18,1.89-3.01.8-.83,1.75-1.48,2.83-1.93,1.09-.45,2.24-.68,3.47-.68.44,0,.86.02,1.27.07.41.04.82.14,1.23.3l-10.47,13.9Z"/>
    <path class="cls-3" d="M153.06,78.33l-6.59,6.62c-.33-.92-.78-1.75-1.35-2.49-.57-.74-1.21-1.36-1.93-1.86-.71-.5-1.49-.89-2.32-1.15s-1.69-.4-2.57-.4c-1.23,0-2.39.25-3.47.76-1.09.51-2.03,1.21-2.83,2.12-.8.91-1.43,1.99-1.89,3.24-.46,1.25-.69,2.63-.69,4.15,0,1.23.23,2.38.69,3.46.46,1.08,1.09,2.02,1.89,2.83.8.81,1.75,1.45,2.83,1.91,1.09.46,2.24.69,3.47.69.88,0,1.72-.12,2.54-.36.81-.24,1.58-.59,2.29-1.04.71-.45,1.35-1,1.91-1.65s1.02-1.37,1.37-2.16l6.59,6.62c-.83,1.19-1.79,2.25-2.88,3.19-1.09.94-2.26,1.75-3.52,2.4-1.26.66-2.59,1.16-3.98,1.5-1.39.34-2.83.51-4.3.51-2.48,0-4.81-.47-7-1.4s-4.1-2.21-5.73-3.84c-1.64-1.62-2.93-3.52-3.87-5.7-.94-2.17-1.42-4.5-1.42-6.98,0-2.7.47-5.23,1.42-7.57.94-2.35,2.23-4.4,3.87-6.14,1.63-1.75,3.55-3.12,5.73-4.13,2.18-1.01,4.52-1.51,7-1.51,1.47,0,2.91.19,4.33.56,1.42.37,2.77.92,4.05,1.63,1.28.71,2.47,1.59,3.56,2.62,1.09,1.03,2.03,2.22,2.82,3.56Z"/>
    <path class="cls-2" d="M295.48,47.05l-19.04,50.1h31.26l-12.22-50.1ZM295.86,89.97l-7.78.03c-1.1,0-1.86-1.18-1.47-2.3l6.48-18.82c.32-.92,1.54-.79,1.69.17l2.94,18.52c.2,1.25-.69,2.4-1.86,2.4ZM175.13,106.59c-2.17,0-4.22-.41-6.12-1.24-1.91-.82-3.58-1.95-5.02-3.39-1.44-1.44-2.57-3.11-3.39-5.02-.82-1.91-1.24-3.95-1.24-6.13v-10.47h-4.38v-8.96h4.38v-14.1h8.96v14.1h13.63v8.96h-13.63v10.47c0,.94.18,1.83.53,2.65s.83,1.54,1.45,2.16c.62.61,1.34,1.1,2.17,1.47s1.72.54,2.67.54h6.82v8.96h-6.82ZM195.98,106.59h-8.99v-35.27h2.17l2.96,4.18c1.45-1.32,3.1-2.33,4.94-3.05,1.84-.71,3.75-1.07,5.73-1.07h7.94v8.96h-7.94c-.94,0-1.83.18-2.67.53s-1.56.83-2.17,1.45c-.61.62-1.1,1.34-1.45,2.17-.35.83-.53,1.72-.53,2.67v19.43ZM238.51,102.47c-.72.66-1.5,1.28-2.32,1.86-.82.58-1.69,1.09-2.59,1.51-.9.43-1.83.77-2.78,1.02s-1.93.38-2.91.38c-2.17,0-4.22-.38-6.13-1.15-1.91-.77-3.58-1.86-5.02-3.28-1.44-1.42-2.57-3.14-3.39-5.17-.82-2.03-1.24-4.31-1.24-6.83v-19.5h8.96v19.5c0,1.19.18,2.25.54,3.18s.85,1.72,1.47,2.35c.61.64,1.33,1.12,2.16,1.45s1.71.49,2.65.49,1.79-.21,2.62-.64c.82-.43,1.54-.99,2.16-1.7.61-.7,1.1-1.5,1.45-2.39.35-.89.53-1.81.53-2.75v-19.5h8.99v35.27h-2.17l-2.96-4.12ZM309.39,101.03l-35.61-.06-16.59-33.2-11.97,23.91.1,14.85,11.9-23.94,12.36,24.65h46.57l-6.76-6.22Z"/>
    <path class="cls-3" d="M2.22,16.55c0-1.95.37-3.79,1.12-5.5.75-1.71,1.76-3.21,3.05-4.5,1.28-1.28,2.78-2.3,4.5-3.05,1.71-.75,3.55-1.12,5.5-1.12h21.67v9.45h-21.67c-.66,0-1.27.12-1.84.36-.57.24-1.07.58-1.5,1-.43.43-.76.93-1,1.5-.24.57-.36,1.19-.36,1.84s.12,1.28.36,1.86c.24.58.58,1.09,1,1.52.43.43.93.76,1.5,1,.57.24,1.19.36,1.84.36h9.45c1.95,0,3.79.37,5.52,1.1,1.72.74,3.23,1.75,4.51,3.03,1.28,1.28,2.29,2.79,3.03,4.51.74,1.72,1.1,3.56,1.1,5.52s-.37,3.79-1.1,5.5c-.74,1.71-1.75,3.21-3.03,4.49-1.28,1.28-2.79,2.3-4.51,3.05-1.72.75-3.56,1.12-5.52,1.12H4.86v-9.45h20.98c.66,0,1.27-.12,1.84-.36.57-.24,1.07-.58,1.5-1,.43-.43.76-.93,1-1.5.24-.57.36-1.19.36-1.84s-.12-1.27-.36-1.84c-.24-.57-.58-1.07-1-1.5s-.93-.76-1.5-1c-.57-.24-1.19-.36-1.84-.36h-9.45c-1.95,0-3.79-.37-5.5-1.12-1.71-.75-3.21-1.76-4.5-3.05-1.28-1.28-2.3-2.79-3.05-4.51-.75-1.72-1.12-3.56-1.12-5.52Z"/>
    <path class="cls-3" d="M77.9,24.01c-.94-2.29-2.23-4.26-3.85-5.89-1.63-1.63-3.53-2.9-5.71-3.79-2.18-.89-4.53-1.33-7.03-1.33s-4.81.47-7,1.42c-2.19.94-4.1,2.25-5.73,3.9-1.64,1.66-2.93,3.63-3.87,5.91-.94,2.28-1.42,4.76-1.42,7.44s.47,5.09,1.42,7.36c.94,2.27,2.23,4.24,3.87,5.89,1.64,1.66,3.55,2.96,5.73,3.92,2.18.95,4.52,1.43,7,1.43s4.85-.48,7.03-1.43c2.18-.95,4.09-2.26,5.71-3.92,1.62-1.66,2.91-3.62,3.85-5.89.94-2.27,1.42-4.73,1.42-7.36,0-2.81-.47-5.36-1.42-7.66ZM69.55,35.59c-.47,1.19-1.11,2.2-1.93,3.03-.81.83-1.76,1.48-2.85,1.94-1.09.46-2.25.69-3.47.69s-2.39-.25-3.47-.74c-1.09-.49-2.03-1.17-2.83-2.03-.8-.86-1.43-1.87-1.89-3.03-.46-1.16-.69-2.43-.69-3.79,0-1.45.23-2.76.69-3.94.46-1.17,1.09-2.18,1.89-3.03.8-.84,1.75-1.49,2.83-1.94,1.09-.45,2.24-.68,3.47-.68s2.39.23,3.47.68c1.09.45,2.04,1.1,2.85,1.94.81.85,1.45,1.86,1.93,3.03.47,1.17.71,2.49.71,3.94s-.24,2.73-.71,3.92Z"/>
    <path class="cls-3" d="M110.21,45.5c-.72.66-1.5,1.28-2.32,1.86-.82.58-1.69,1.09-2.59,1.51-.9.43-1.83.77-2.78,1.02-.95.25-1.93.38-2.91.38-2.17,0-4.22-.38-6.13-1.15-1.91-.77-3.58-1.86-5.02-3.28-1.44-1.42-2.57-3.14-3.39-5.17-.82-2.03-1.24-4.31-1.24-6.83V14.35h8.96v19.5c0,1.19.18,2.25.54,3.18.36.93.85,1.72,1.47,2.35.61.64,1.33,1.12,2.16,1.45.82.33,1.71.49,2.65.49s1.8-.21,2.62-.64c.82-.43,1.54-.99,2.16-1.7.61-.7,1.1-1.5,1.45-2.39.35-.89.53-1.81.53-2.75V14.35h8.99v35.27h-2.17l-2.96-4.12Z"/>
    <rect class="cls-3" x="122.2" y="2.39" width="9.06" height="47.23"/>
  </g>
</svg>